<svg id="Layer_1" data-name="Layer 1" xmlns="http://www.w3.org/2000/svg" viewBox="0 0 170 40"><defs><style>.cls-1{fill:#3a3e46;}</style></defs><rect class="cls-1" x="47.27" y="35.58" width="1.85" height="0.72"/><path class="cls-1" d="M58.39,34.84l-.56-.34a2.14,2.14,0,0,1-.56-.43.63.63,0,0,1-.17-.43.54.54,0,0,1,.23-.43,1,1,0,0,1,.6-.17,1.74,1.74,0,0,1,1.21.54v-.84A1.94,1.94,0,0,0,58,32.37a1.62,1.62,0,0,0-1.11.38,1.31,1.31,0,0,0-.42,1,1.16,1.16,0,0,0,.22.72,2.59,2.59,0,0,0,.76.64l.56.34c.46.29.68.58.68.9a.59.59,0,0,1-.23.49.86.86,0,0,1-.58.19,1.72,1.72,0,0,1-1.39-.76v.94a2.21,2.21,0,0,0,1.4.47A1.48,1.48,0,0,0,59,37.29a1.31,1.31,0,0,0,.42-1A1.64,1.64,0,0,0,58.39,34.84Z"/><rect class="cls-1" x="62.45" y="32.44" width="0.74" height="5.19"/><polygon class="cls-1" points="70.75 36.47 67.25 32.44 66.65 32.44 66.65 37.63 67.34 37.63 67.34 33.63 70.81 37.63 71.45 37.63 71.45 32.44 70.75 32.44 70.75 36.47"/><path class="cls-1" d="M76,36.45a1.81,1.81,0,0,1-.58-1.4A1.84,1.84,0,0,1,76,33.64a2,2,0,0,1,1.48-.56,3.51,3.51,0,0,1,1.78.52v-.8a4.58,4.58,0,0,0-1.82-.43,2.81,2.81,0,0,0-2,.77A2.62,2.62,0,0,0,75,36.37a2.53,2.53,0,0,0,1,1,3,3,0,0,0,1.48.34,3.75,3.75,0,0,0,1.88-.44v-.82a3.34,3.34,0,0,1-1.84.58A2.1,2.1,0,0,1,76,36.45Z"/><polygon class="cls-1" points="83.25 35.34 85.38 35.34 85.38 34.68 83.25 34.68 83.25 33.1 85.45 33.1 85.45 32.44 82.51 32.44 82.51 37.62 85.52 37.62 85.52 36.96 83.25 36.96 83.25 35.34"/><path class="cls-1" d="M94.14,36.72a11.06,11.06,0,0,0,1-1.26,4.11,4.11,0,0,0,.39-.82,2.19,2.19,0,0,0,.11-.67,1.62,1.62,0,0,0-.44-1.15,1.52,1.52,0,0,0-1.2-.45,2,2,0,0,0-1.25.49v1a1.91,1.91,0,0,1,.54-.52,1.24,1.24,0,0,1,.62-.18.85.85,0,0,1,.66.26,1,1,0,0,1,.25.71,1.69,1.69,0,0,1-.13.63,6.15,6.15,0,0,1-.57,1c-.29.42-.67.93-1.16,1.54l-.31.36v.06H96V37H94Z"/><path class="cls-1" d="M100.43,32.37a1.44,1.44,0,0,0-1.23.74,4.2,4.2,0,0,0,0,3.84,1.37,1.37,0,0,0,1.21.73,1.4,1.4,0,0,0,1.21-.74,4.1,4.1,0,0,0,0-3.82A1.36,1.36,0,0,0,100.43,32.37Zm.64,4.1a.7.7,0,0,1-1.35,0A3.36,3.36,0,0,1,99.47,35a3.48,3.48,0,0,1,.25-1.43.78.78,0,0,1,.68-.52h0c.27,0,.48.17.64.53a3.55,3.55,0,0,1,.24,1.44A3.26,3.26,0,0,1,101.07,36.47Z"/><path class="cls-1" d="M106.51,32.37a1.41,1.41,0,0,0-1.22.74,3.49,3.49,0,0,0-.47,1.92,3.58,3.58,0,0,0,.45,1.92,1.36,1.36,0,0,0,1.83.59,1.4,1.4,0,0,0,.59-.59,4.1,4.1,0,0,0,0-3.82A1.38,1.38,0,0,0,106.51,32.37Zm.65,4.1a.78.78,0,0,1-.68.52.76.76,0,0,1-.68-.52,3.55,3.55,0,0,1-.24-1.44,3.33,3.33,0,0,1,.25-1.43.75.75,0,0,1,.68-.52h0c.27,0,.49.17.65.53a3.55,3.55,0,0,1,.24,1.44A3.44,3.44,0,0,1,107.16,36.47Z"/><path class="cls-1" d="M112.6,32.37a1.44,1.44,0,0,0-1.23.74,4.13,4.13,0,0,0,0,3.81,1.37,1.37,0,0,0,1.21.73,1.4,1.4,0,0,0,1.21-.74,4.22,4.22,0,0,0,0-3.82A1.36,1.36,0,0,0,112.6,32.37Zm.64,4.1a.7.7,0,0,1-1.35,0,4.28,4.28,0,0,1,0-2.87.76.76,0,0,1,.68-.52h0c.27,0,.48.17.64.53a3.55,3.55,0,0,1,.24,1.44A3.28,3.28,0,0,1,113.24,36.47Z"/><rect class="cls-1" x="121.45" y="35.58" width="1.85" height="0.72"/><path class="cls-1" d="M15.18,13.26a4.3,4.3,0,0,0-2.13.57,3.47,3.47,0,0,0-1.46,1.5h0v-.86a4,4,0,0,0-.07-.94H10c0,.36.05.76.07,1.21s0,.82,0,1.1V24H11.6V18.64a5.35,5.35,0,0,1,.26-1.82,3.77,3.77,0,0,1,.72-1.28,2.75,2.75,0,0,1,1-.75,2.81,2.81,0,0,1,1.18-.25,3.12,3.12,0,0,1,1.38.27,2.25,2.25,0,0,1,.87.75,3.07,3.07,0,0,1,.46,1.16,7.55,7.55,0,0,1,.14,1.5V24h1.52V17.59a4.74,4.74,0,0,0-1-3.14A3.74,3.74,0,0,0,15.18,13.26Z"/><path class="cls-1" d="M32.52,14.8A4.42,4.42,0,0,0,31,13.68a5.26,5.26,0,0,0-2.18-.42,5.16,5.16,0,0,0-2.08.42A4.85,4.85,0,0,0,25,14.83a5.32,5.32,0,0,0-1.13,1.75,5.91,5.91,0,0,0-.4,2.2A5.63,5.63,0,0,0,23.9,21,5.42,5.42,0,0,0,25,22.73a5,5,0,0,0,1.71,1.15,5.59,5.59,0,0,0,2.17.42,5.52,5.52,0,0,0,4.51-2.22l-1.15-.9A4.17,4.17,0,0,1,31,22.45,3.72,3.72,0,0,1,29,23a3.51,3.51,0,0,1-1.5-.31,3.75,3.75,0,0,1-1.22-.82,3.5,3.5,0,0,1-.8-1.21,4,4,0,0,1-.32-1.48h8.71v-.71a6.17,6.17,0,0,0-.33-2A4.53,4.53,0,0,0,32.52,14.8ZM25.1,18a3.61,3.61,0,0,1,.33-1.29,4.1,4.1,0,0,1,.79-1.1,3.79,3.79,0,0,1,1.14-.76,3.45,3.45,0,0,1,1.41-.28,3.25,3.25,0,0,1,2.53,1A3.75,3.75,0,0,1,32.25,18Z"/><polygon class="cls-1" points="46.18 13.53 44.34 13.53 41.47 17.52 38.6 13.53 36.65 13.53 40.53 18.6 36.4 24.03 38.24 24.03 41.45 19.65 44.56 24.03 46.54 24.03 42.37 18.53 46.18 13.53"/><path class="cls-1" d="M51.81,10.57H50.28v3H48.11v1.28h2.17V21.4a3.27,3.27,0,0,0,.26,1.41,2.38,2.38,0,0,0,.66.85,2.26,2.26,0,0,0,.88.43,3.89,3.89,0,0,0,.9.11,5,5,0,0,0,1.79-.31l-.07-1.32a3.71,3.71,0,0,1-.66.24,2.5,2.5,0,0,1-.66.09,2.22,2.22,0,0,1-.63-.08,1.1,1.1,0,0,1-.5-.29,1.5,1.5,0,0,1-.33-.59,3.74,3.74,0,0,1-.11-1V14.81h3V13.53h-3Z"/><path class="cls-1" d="M77.07,20.86l-3-2.13a5.82,5.82,0,0,1-2.13,1.78,6.5,6.5,0,0,1-3,.68,7.35,7.35,0,0,1-3-.57A6.48,6.48,0,0,1,63.68,19a7.42,7.42,0,0,1-1.45-2.47,9.48,9.48,0,0,1-.51-3.17,8.59,8.59,0,0,1,.53-3,7.33,7.33,0,0,1,1.49-2.45,7.07,7.07,0,0,1,2.32-1.65,7.42,7.42,0,0,1,5.63-.07A4.81,4.81,0,0,1,73.88,7.8l2.87-2.27a6.17,6.17,0,0,0-1.53-1.44,9.93,9.93,0,0,0-1.91-1,10.94,10.94,0,0,0-2.12-.6,11.72,11.72,0,0,0-2.13-.19,12.75,12.75,0,0,0-4.54.77,10.65,10.65,0,0,0-3.64,2.22,10.15,10.15,0,0,0-2.42,3.48,11.65,11.65,0,0,0-.88,4.59,11.89,11.89,0,0,0,.83,4.53,10.47,10.47,0,0,0,2.34,3.53,10.24,10.24,0,0,0,3.57,2.3,12.24,12.24,0,0,0,4.56.83,10.86,10.86,0,0,0,4.76-1A9.8,9.8,0,0,0,77.07,20.86Z"/><path class="cls-1" d="M112.36,12h-8.11v3.11h4.46v5.38a10.87,10.87,0,0,1-4.22.75,7.91,7.91,0,0,1-3.15-.59A6.64,6.64,0,0,1,99,19a7.38,7.38,0,0,1-1.49-2.46A8.91,8.91,0,0,1,97,13.38a8.81,8.81,0,0,1,.52-3.05A7.31,7.31,0,0,1,99,7.88a6.79,6.79,0,0,1,2.32-1.65,7.54,7.54,0,0,1,3-.59,8,8,0,0,1,3.16.62,6.56,6.56,0,0,1,2.26,1.53L112.33,5a9.5,9.5,0,0,0-3.4-1.93,14.14,14.14,0,0,0-4.65-.73,12.75,12.75,0,0,0-4.54.77,10.7,10.7,0,0,0-3.64,2.2,10.15,10.15,0,0,0-2.42,3.48,11.65,11.65,0,0,0-.88,4.59,11.72,11.72,0,0,0,.85,4.53,10.38,10.38,0,0,0,6,5.83,12.75,12.75,0,0,0,4.69.83,20.09,20.09,0,0,0,4.44-.44,16.34,16.34,0,0,0,3.55-1.21Z"/><path class="cls-1" d="M126.56,2.85,117.35,24h4.22l1.91-4.85h9.18l2,4.85H139L129.82,2.85ZM124.77,16l3.32-8.61L131.35,16Z"/><path class="cls-1" d="M154.35,14.64a6.57,6.57,0,0,0,3.54-2,5.39,5.39,0,0,0,1.3-3.76A5.71,5.71,0,0,0,158.53,6a5.34,5.34,0,0,0-1.75-1.88,7.49,7.49,0,0,0-2.49-1,13.42,13.42,0,0,0-2.9-.32H144V24h3.77V15h2.75l4.9,9H160Zm-1.86-2.78a10.81,10.81,0,0,1-1.61.12H147.8V6h3.41a9.14,9.14,0,0,1,1.48.12,4,4,0,0,1,1.36.45,2.82,2.82,0,0,1,1,.88,2.46,2.46,0,0,1,.39,1.42,2.74,2.74,0,0,1-.42,1.58,2.82,2.82,0,0,1-1.06.94A4.51,4.51,0,0,1,152.49,11.86Z"/><path class="cls-1" d="M84.61,10.57c-.63,0-1-.73-1.12-1.36h-.71V24.08c0,.42,3.65.45,3.65,0V9.21h-.71C85.57,9.84,85.23,10.57,84.61,10.57Z"/><path class="cls-1" d="M84.61,2.85a1.84,1.84,0,0,0-1.83,1.66V8.23h.71c.15-.63.47-1.39,1.12-1.39s1,.76,1.11,1.39h.71V4.51A1.84,1.84,0,0,0,84.61,2.85Z"/></svg>